<svg width="20" height="19" viewBox="0 0 20 19" fill="none" xmlns="http://www.w3.org/2000/svg">
<path d="M18.7109 8.32812L11.1719 0.828125C10.5469 0.203125 9.45312 0.164062 8.82812 0.828125L1.32812 8.32812C0.664062 8.95312 0.664062 10.0078 1.32812 10.6719L8.82812 18.1719C9.14062 18.4844 9.57031 18.6406 10 18.6406C10.4297 18.6406 10.8594 18.4844 11.1719 18.1719L18.6719 10.6719C19.3359 10.0469 19.3359 8.99219 18.7109 8.32812ZM10 17L2.5 9.5L10 2L17.5 9.5L10 17ZM6.67969 8.67969V12H8.32031V9.5H11.6797V11.5703L14.5703 8.67969L11.6797 5.75V7.82031H7.5C7.03125 7.82031 6.67969 8.21094 6.67969 8.67969Z" fill="#757575"/>
</svg>
