<svg width="18" height="18" viewBox="0 0 18 18" fill="none" xmlns="http://www.w3.org/2000/svg">
<g clip-path="url(#clip0_575_358)">
<path d="M8.55 0.900002C3.83555 0.900002 0 4.73555 0 9.45C0 14.1641 3.83555 18 8.55 18C13.2641 18 17.1 14.1641 17.1 9.45C17.1 4.73555 13.2648 0.900002 8.55 0.900002ZM10.6763 9.751H9.28529C9.28529 11.9734 9.28529 14.7089 9.28529 14.7089H7.22407C7.22407 14.7089 7.22407 11.9999 7.22407 9.751H6.24426V7.99871H7.22407V6.8653C7.22407 6.05356 7.6098 4.78514 9.30423 4.78514L10.8316 4.791V6.49198C10.8316 6.49198 9.90348 6.49198 9.72302 6.49198C9.54255 6.49198 9.28598 6.58221 9.28598 6.96931V7.99906H10.8564L10.6763 9.751Z" fill="#757575"/>
</g>
<defs>
<clipPath id="clip0_575_358">
<rect width="18" height="18" fill="white"/>
</clipPath>
</defs>
</svg>
