<svg width="18" height="18" viewBox="0 0 18 18" fill="none" xmlns="http://www.w3.org/2000/svg">
<g clip-path="url(#clip0_575_362)">
<path d="M9.00023 0.90781C5.68248 0.90781 2.53194 0.612909 1.32856 3.69887C0.831496 4.97342 0.903681 6.6287 0.903681 8.99886C0.903681 11.0787 0.836979 13.0334 1.32856 14.2979C2.5292 17.3857 5.70532 17.0899 8.9984 17.0899C12.1754 17.0899 15.4511 17.4204 16.6691 14.2979C17.1671 13.0106 17.094 11.38 17.094 8.99886C17.094 5.83804 17.2686 3.79747 15.7344 2.26545C14.1811 0.713339 12.0804 0.90781 8.99657 0.90781H9.00023ZM8.27473 2.36588C15.1953 2.35492 16.0761 1.58617 15.59 12.2656C15.4173 16.0427 12.5391 15.6282 9.00114 15.6282C2.55022 15.6282 2.36473 15.4438 2.36473 8.99521C2.36473 2.47179 2.87642 2.36953 8.27473 2.36405V2.36588ZM13.3222 3.70891C12.7858 3.70891 12.3509 4.1435 12.3509 4.67943C12.3509 5.21537 12.7858 5.64996 13.3222 5.64996C13.8585 5.64996 14.2935 5.21537 14.2935 4.67943C14.2935 4.1435 13.8585 3.70891 13.3222 3.70891ZM9.00023 4.84377C6.70403 4.84377 4.84276 6.70448 4.84276 8.99886C4.84276 11.2932 6.70403 13.153 9.00023 13.153C11.2964 13.153 13.1568 11.2932 13.1568 8.99886C13.1568 6.70448 11.2964 4.84377 9.00023 4.84377ZM9.00023 6.30184C12.5683 6.30184 12.5729 11.6959 9.00023 11.6959C5.43303 11.6959 5.42755 6.30184 9.00023 6.30184Z" fill="#757575"/>
</g>
<defs>
<clipPath id="clip0_575_362">
<rect width="18" height="18" fill="white"/>
</clipPath>
</defs>
</svg>
