<svg width="18" height="18" viewBox="0 0 18 18" fill="none" xmlns="http://www.w3.org/2000/svg">
<g clip-path="url(#clip0_578_375)">
<path d="M15.9009 0.9H2.09568C1.43601 0.9 0.899994 1.42285 0.899994 2.06712V15.9307C0.899994 16.5756 1.43601 17.0995 2.09568 17.0995H15.9009C16.5616 17.0995 17.1 16.576 17.1 15.9307V2.06712C17.0998 1.42285 16.5616 0.9 15.9009 0.9Z" fill="#757575"/>
<path d="M3.30181 6.97317H5.70481V14.704H3.30181V6.97317ZM4.50382 3.13008C5.27193 3.13008 5.89654 3.75434 5.89654 4.52279C5.89654 5.29192 5.27227 5.91619 4.50382 5.91619C3.73384 5.91619 3.1106 5.29192 3.1106 4.52279C3.11042 3.75469 3.73384 3.13008 4.50382 3.13008Z" fill="white"/>
<path d="M7.21256 6.97373H9.51688V8.03019H9.54903C9.86989 7.42235 10.6537 6.78149 11.8226 6.78149C14.2557 6.78149 14.7051 8.38269 14.7051 10.4642V14.7046H12.304V10.9449C12.304 10.0484 12.2874 8.89528 11.0553 8.89528C9.8049 8.89528 9.61283 9.87204 9.61283 10.8801V14.7046H7.21222V6.97373H7.21256Z" fill="white"/>
</g>
<defs>
<clipPath id="clip0_578_375">
<rect width="18" height="18" fill="white"/>
</clipPath>
</defs>
</svg>
