<svg width="112" height="33" viewBox="0 0 112 33" fill="none" xmlns="http://www.w3.org/2000/svg">
<g clip-path="url(#clip0_566_347)">
<path d="M97.1585 8.76691H92.504L88.9998 13.2802L85.6077 8.76691H80.7015L86.5043 16.4428L80.7015 24.2337H85.4673L88.8872 19.4898L91.3248 16.3285L97.1585 8.76691Z" fill="#333132"/>
<path d="M89.9077 20.9522L92.1963 24.2344H97.1585L91.3267 16.3285L89.9077 20.9522Z" fill="#333132"/>
<path d="M61.5916 15.4617V24.2332H57.2171V16.1357C57.2171 13.6907 56.0972 12.5673 54.1603 12.5673C52.0607 12.5673 50.5454 13.8612 50.5454 16.6432V24.2352H46.171V8.77235H50.3484V10.7686C50.9943 10.1039 51.7723 9.58265 52.6319 9.23875C53.4915 8.89485 54.4135 8.73595 55.3382 8.77235C58.8958 8.77235 61.5916 10.8519 61.5916 15.4663" fill="#333132"/>
<path d="M71.2556 20.2795C70.5105 20.2797 69.7821 20.0584 69.1625 19.6434C68.5429 19.2285 68.0598 18.6385 67.7745 17.9482C67.4891 17.2578 67.4142 16.4981 67.5593 15.7651C67.7044 15.0321 68.063 14.3588 68.5896 13.8301C69.1163 13.3015 69.7874 12.9414 70.518 12.7954C71.2487 12.6493 72.0062 12.7239 72.6946 13.0096C73.3831 13.2954 73.9715 13.7795 74.3857 14.4007C74.7998 15.0219 75.021 15.7524 75.0213 16.4997C75.0213 17.5017 74.6246 18.4627 73.9185 19.1715C73.2124 19.8802 72.2545 20.2788 71.2556 20.2795ZM74.8092 8.76757V9.64182C73.6343 9.02862 72.3217 8.72943 70.998 8.77308C69.6743 8.81672 68.3841 9.20173 67.2519 9.89099C66.1197 10.5803 65.1837 11.5505 64.5341 12.7082C63.8845 13.8659 63.5432 15.1719 63.5432 16.5003C63.5432 17.8288 63.8845 19.1348 64.5341 20.2925C65.1837 21.4501 66.1197 22.4204 67.2519 23.1097C68.3841 23.7989 69.6743 24.1839 70.998 24.2276C72.3217 24.2712 73.6343 23.972 74.8092 23.3588V24.2331H78.9649V8.77021L74.8092 8.76757Z" fill="#333132"/>
<path d="M104.287 20.2795C103.542 20.2792 102.814 20.0574 102.194 19.6421C101.575 19.2269 101.092 18.6367 100.807 17.9463C100.523 17.256 100.448 16.4964 100.593 15.7635C100.739 15.0307 101.098 14.3575 101.624 13.8292C102.151 13.3008 102.822 12.941 103.553 12.7952C104.283 12.6493 105.041 12.7241 105.729 13.0099C106.417 13.2957 107.006 13.7798 107.42 14.401C107.834 15.0221 108.055 15.7525 108.055 16.4997C108.055 16.9961 107.958 17.4877 107.769 17.9464C107.579 18.4052 107.302 18.822 106.952 19.173C106.602 19.524 106.186 19.8024 105.729 19.9923C105.272 20.1822 104.782 20.2798 104.287 20.2795ZM107.844 8.76758V9.64182C106.669 9.02715 105.355 8.72675 104.031 8.76962C102.706 8.81248 101.414 9.19717 100.281 9.88654C99.1474 10.5759 98.2103 11.5467 97.5599 12.7052C96.9095 13.8637 96.5679 15.1708 96.5679 16.5003C96.5679 17.8299 96.9095 19.137 97.5599 20.2955C98.2103 21.454 99.1474 22.4248 100.281 23.1141C101.414 23.8035 102.706 24.1882 104.031 24.231C105.355 24.2739 106.669 23.9735 107.844 23.3588V24.2351H112.002V8.76758H107.844Z" fill="#333132"/>
<path d="M16.4629 16.4878L0 33L21.9336 22.0002L32.9007 -1.52588e-05L16.4629 16.4878Z" fill="#0055FF"/>
<path d="M21.9336 22.0002L32.9 33V-7.62939e-06L21.9336 22.0002Z" fill="url(#paint0_linear_566_347)"/>
<path d="M0 -1.52588e-05V33L14.9891 15.034L0 -1.52588e-05Z" fill="url(#paint1_linear_566_347)"/>
</g>
<defs>
<linearGradient id="paint0_linear_566_347" x1="28.6012" y1="21.879" x2="36.9094" y2="20.3726" gradientUnits="userSpaceOnUse">
<stop stop-color="#0055FF"/>
<stop offset="1" stop-color="#001ACB"/>
</linearGradient>
<linearGradient id="paint1_linear_566_347" x1="-8.22902" y1="8.24999" x2="10.8266" y2="12.1914" gradientUnits="userSpaceOnUse">
<stop stop-color="#FFDC1C"/>
<stop offset="1" stop-color="#FFAA00"/>
</linearGradient>
<clipPath id="clip0_566_347">
<rect width="112" height="33" fill="white"/>
</clipPath>
</defs>
</svg>
