<svg width="16" height="16" viewBox="0 0 16 16" fill="none" xmlns="http://www.w3.org/2000/svg">
<path d="M3.46875 2.17969C3.50781 2.92188 3.625 3.625 3.82031 4.32812L2.84375 5.34375C2.49219 4.32812 2.25781 3.27344 2.17969 2.17969H3.46875ZM11.6719 12.1797C12.375 12.375 13.1172 12.4922 13.8203 12.5703V13.7812C12.7266 13.7422 11.6719 13.5078 10.6562 13.1562L11.6719 12.1797ZM4.25 0.5H1.32031C0.890625 0.5 0.5 0.890625 0.5 1.32031C0.5 9.17188 6.82812 15.5 14.6797 15.5C15.1094 15.5 15.5 15.1094 15.5 14.6797V11.75C15.5 11.2812 15.1094 10.9297 14.6797 10.9297C13.625 10.9297 12.6094 10.7734 11.7109 10.4609C11.5938 10.4219 11.5156 10.4219 11.4375 10.4219C11.2031 10.4219 11.0078 10.5 10.8516 10.6562L9.01562 12.4922C6.63281 11.2812 4.71875 9.36719 3.50781 6.98438L5.34375 5.14844C5.57812 4.91406 5.65625 4.60156 5.53906 4.28906C5.26562 3.39062 5.07031 2.375 5.07031 1.32031C5.07031 0.890625 4.71875 0.5 4.25 0.5Z" fill="#0055FF"/>
</svg>
