<svg width="18" height="18" viewBox="0 0 18 18" fill="none" xmlns="http://www.w3.org/2000/svg">
<g clip-path="url(#clip0_575_364)">
<path d="M16.2238 5.02874C16.2347 5.18623 16.2347 5.34376 16.2347 5.50125C16.2347 10.305 12.6713 15.84 6.15837 15.84C4.15185 15.84 2.2879 15.2437 0.719971 14.2088C1.00506 14.2425 1.27914 14.2538 1.5752 14.2538C3.23081 14.2538 4.7549 13.68 5.97196 12.7013C4.415 12.6675 3.11022 11.6213 2.66067 10.1813C2.87998 10.215 3.09925 10.2375 3.32953 10.2375C3.64749 10.2375 3.96548 10.1925 4.26151 10.1138C2.63877 9.77623 1.42167 8.31375 1.42167 6.5475V6.50251C1.89313 6.77252 2.4414 6.94126 3.02247 6.96374C2.06856 6.31122 1.44361 5.19749 1.44361 3.93748C1.44361 3.26249 1.61901 2.64374 1.92603 2.10374C3.66939 4.30873 6.28992 5.74871 9.22838 5.90624C9.17357 5.63624 9.14066 5.35501 9.14066 5.07376C9.14066 3.07123 10.7196 1.44 12.6822 1.44C13.7019 1.44 14.6229 1.87875 15.2698 2.5875C16.0702 2.43001 16.8377 2.12624 17.5175 1.71C17.2544 2.55377 16.6952 3.26252 15.9606 3.71249C16.6733 3.63378 17.3641 3.43124 18 3.15002C17.5176 3.86999 16.9145 4.51121 16.2238 5.02874Z" fill="#757575"/>
</g>
<defs>
<clipPath id="clip0_575_364">
<rect width="18" height="18" fill="white"/>
</clipPath>
</defs>
</svg>
